<svg width="24" height="24" viewBox="0 0 24 24" fill="none" xmlns="http://www.w3.org/2000/svg">
    <path fill-rule="evenodd" clip-rule="evenodd"
          d="M20 24H14V15C14 13.8954 13.1046 13 12 13C10.8954 13 10 13.8954 10 15V24H4C1.79086 24 0 22.2091 0 20V10C0 8.74097 0.592777 7.55542 1.6 6.8L9.6 0.8C11.0222 -0.266667 12.9778 -0.266667 14.4 0.8L22.4 6.8C23.4072 7.55542 24 8.74097 24 10V20C24 22.2091 22.2091 24 20 24ZM13.8 1.6L21.8 7.6C22.5554 8.16656 23 9.05573 23 10V20C23 21.6569 21.6569 23 20 23H15V15C15 13.3431 13.6569 12 12 12C10.3431 12 9 13.3431 9 15V23H4C2.34315 23 1 21.6569 1 20V10C1 9.05573 1.44458 8.16656 2.2 7.6L10.2 1.6C11.2667 0.8 12.7333 0.8 13.8 1.6Z"
          fill="white"/>
</svg>
