<svg width="24" height="24" viewBox="0 0 24 24" fill="none" xmlns="http://www.w3.org/2000/svg">
    <path d="M17 10C17 12.7614 14.7614 15 12 15C9.23859 15 7 12.7614 7 10C7 7.23859 9.23859 5 12 5C14.7614 5 17 7.23859 17 10Z"
          fill="white"/>
    <path fill-rule="evenodd" clip-rule="evenodd"
          d="M0 20C0 22.2091 1.79086 24 4 24H20C22.2091 24 24 22.2091 24 20V4C24 1.79086 22.2091 0 20 0H4C1.79086 0 0 1.79086 0 4V20ZM19.748 22C18.8599 18.5495 15.7277 16 12 16C8.27232 16 5.14011 18.5495 4.25203 22H4C2.89543 22 2 21.1046 2 20V4C2 2.89543 2.89543 2 4 2H20C21.1046 2 22 2.89543 22 4V20C22 21.1046 21.1046 22 20 22H19.748Z"
          fill="white"/>
</svg>
