<svg width="24" height="24" viewBox="0 0 24 24" fill="none" xmlns="http://www.w3.org/2000/svg">
    <path fill-rule="evenodd" clip-rule="evenodd"
          d="M17 10C17 12.7614 14.7614 15 12 15C9.23858 15 7 12.7614 7 10C7 7.23858 9.23858 5 12 5C14.7614 5 17 7.23858 17 10ZM16 10C16 12.2091 14.2091 14 12 14C9.79086 14 8 12.2091 8 10C8 7.79086 9.79086 6 12 6C14.2091 6 16 7.79086 16 10Z"
          fill="white"/>
    <path fill-rule="evenodd" clip-rule="evenodd"
          d="M4 24C1.79086 24 0 22.2091 0 20V4C0 1.79086 1.79086 0 4 0H20C22.2091 0 24 1.79086 24 4V20C24 22.2091 22.2091 24 20 24H19C19 23.6605 18.9758 23.3266 18.9291 23C18.4439 19.6077 15.5265 17 12 17C8.47353 17 5.55612 19.6077 5.07089 23C5.02417 23.3266 5 23.6605 5 24H4ZM4 1H20C21.6569 1 23 2.34315 23 4V20C23 21.6569 21.6569 23 20 23H19.9381C19.446 19.0537 16.0796 16 12 16C7.92038 16 4.55399 19.0537 4.06189 23H4C2.34315 23 1 21.6569 1 20V4C1 2.34315 2.34315 1 4 1Z"
          fill="white"/>
</svg>
